<?xml version="1.0" encoding="utf-8"?>
<!-- Generator: Adobe Illustrator 28.3.0, SVG Export Plug-In . SVG Version: 6.00 Build 0)  -->
<!DOCTYPE svg PUBLIC "-//W3C//DTD SVG 1.1//EN" "http://www.w3.org/Graphics/SVG/1.1/DTD/svg11.dtd" [
	<!ENTITY ns_extend "http://ns.adobe.com/Extensibility/1.0/">
	<!ENTITY ns_ai "http://ns.adobe.com/AdobeIllustrator/10.0/">
	<!ENTITY ns_graphs "http://ns.adobe.com/Graphs/1.0/">
	<!ENTITY ns_vars "http://ns.adobe.com/Variables/1.0/">
	<!ENTITY ns_imrep "http://ns.adobe.com/ImageReplacement/1.0/">
	<!ENTITY ns_sfw "http://ns.adobe.com/SaveForWeb/1.0/">
	<!ENTITY ns_custom "http://ns.adobe.com/GenericCustomNamespace/1.0/">
	<!ENTITY ns_adobe_xpath "http://ns.adobe.com/XPath/1.0/">
]>
<svg version="1.1" id="레이어_1" xmlns:x="&ns_extend;" xmlns:i="&ns_ai;" xmlns:graph="&ns_graphs;"
	 xmlns="http://www.w3.org/2000/svg" xmlns:xlink="http://www.w3.org/1999/xlink" x="0px" y="0px" width="100px" height="30px"
	 viewBox="0 0 100 30" style="enable-background:new 0 0 100 30;" xml:space="preserve">
<metadata>
	<sfw  xmlns="&ns_sfw;">
		<slices></slices>
		<sliceSourceBounds  bottomLeftOrigin="true" height="18.123" width="89.451" x="5.32" y="-24.479"></sliceSourceBounds>
	</sfw>
</metadata>
<g>
	<path d="M5.32,18.743c0-0.285,0.228-0.608,0.475-0.779c0.266-0.171,0.361-0.152,0.475,0c0.551,0.76,1.14,1.102,1.786,1.102
		c0.513,0,0.912-0.266,0.912-0.854c0-0.456-0.209-0.874-0.988-1.672c-0.722-0.741-1.425-1.425-1.443-2.299
		c0-0.684,0.189-1.311,1.007-2.052c0.589-0.513,1.405-0.893,1.938-0.893c0.646,0,1.234,0.456,1.216,0.931
		c0,0.285-0.171,0.57-0.532,0.836c-0.114,0.095-0.209,0.057-0.323-0.076c-0.342-0.456-0.835-0.893-1.405-0.893
		c-0.437,0-0.817,0.342-0.817,0.874c0.02,0.569,0.476,1.102,1.141,1.729c0.911,0.854,1.405,1.539,1.405,2.261
		c0.02,1.539-1.843,2.964-3.191,2.964C6.156,19.921,5.32,19.407,5.32,18.743z"/>
	<path d="M18.353,18.078c-0.949,1.12-2.223,1.843-2.697,1.843c-0.36,0-0.569-0.418-0.247-1.9l0.95-4.426
		c0.209-0.912,0.114-1.159-0.076-1.159c-0.76,0-2.546,2.413-2.926,3.382c-0.189,0.778-0.551,2.564-0.76,3.742
		c-0.569,0.057-1.216,0.19-1.614,0.342l-0.096-0.113c0.723-3.363,1.539-7.371,2.223-11.151c0.229-1.179,0.096-1.33-0.74-1.406
		l-0.285-0.019l0.057-0.209c1.387-0.134,2.66-0.646,2.888-0.646c0.171,0,0.209,0.133,0.133,0.513l-1.672,7.809h0.038
		c1.141-1.615,2.166-2.527,2.926-3.002c0.418-0.266,0.798-0.38,1.083-0.38c0.361,0,0.893,0.228,0.437,2.299l-0.911,4.255
		c-0.114,0.551-0.076,0.723,0.038,0.723c0.171,0,0.722-0.323,1.082-0.685L18.353,18.078z"/>
	<path d="M19.266,17.147c0-2.489,1.159-4.256,2.451-5.11c0.646-0.438,1.443-0.741,2.203-0.741c1.406,0,2.128,1.063,2.128,2.735
		s-0.703,3.591-1.919,4.712c-0.702,0.627-1.729,1.178-2.659,1.178C19.76,19.921,19.266,18.477,19.266,17.147z M22.533,19.351
		c0.798-0.323,1.71-2.603,1.71-5.452c0-1.481-0.323-2.128-0.95-2.128c-0.133,0-0.266,0.038-0.437,0.076
		c-0.665,0.304-1.786,2.128-1.786,5.472c0,1.349,0.456,2.108,1.026,2.108C22.268,19.427,22.382,19.389,22.533,19.351z"/>
	<path d="M34.028,17.603c0.798-1.196,2.032-3.153,2.032-4.369c0-0.551-0.247-0.912-0.361-1.045c-0.037-0.133,0-0.285,0.076-0.398
		c0.171-0.285,0.513-0.494,0.779-0.494c0.398,0,0.74,0.418,0.722,1.063c0,0.589-0.323,1.292-0.665,1.9
		c-0.456,0.816-2.735,4.255-3.762,5.661h-0.266c-0.133-1.577-0.456-3.686-0.646-5.339H31.9c-0.836,1.539-2.185,3.933-3.021,5.339
		h-0.285c-0.057-1.767-0.133-4.654-0.209-5.928c-0.076-1.007-0.171-1.387-0.361-1.387c-0.171,0-0.437,0.229-0.836,0.722
		l-0.151-0.171c0.607-0.949,1.729-1.861,2.299-1.861c0.418,0,0.607,0.684,0.664,2.014c0.038,1.083,0.114,2.697,0.058,3.78h0.038
		c0.874-1.481,1.956-3.59,2.888-5.509h0.266c0.247,1.976,0.513,4.008,0.741,6.021H34.028z"/>
	<path d="M45.428,17.982c-0.722,0.97-2.203,1.938-2.697,1.938c-0.399,0-0.685-0.323-0.361-1.824
		c0.361-1.539,0.722-3.115,1.083-4.806c0.247-1.007,0.152-1.159-0.418-1.159h-1.823c-0.323,1.843-0.552,3.306-1.007,5.471
		c-0.665,3.211-1.406,4.636-2.413,5.643c-0.969,1.007-1.805,1.234-2.261,1.234c-0.475,0-0.931-0.266-0.931-0.646
		c0-0.247,0.228-0.551,0.551-0.836c0.114-0.114,0.209-0.114,0.323,0c0.475,0.418,0.854,0.589,1.196,0.589
		c0.304,0,0.532-0.133,0.722-0.456c0.247-0.398,0.552-1.311,1.064-4.426c0.456-2.773,0.665-4.312,1.025-6.573h-1.292l-0.019-0.095
		l0.513-0.438h0.912c0.361-1.729,0.854-2.963,1.919-4.065c0.551-0.569,1.614-1.178,2.488-1.178c1.425,0,1.748,0.817,1.748,1.197
		c0,0.304-0.247,0.589-0.741,0.798c-0.323,0.133-0.569,0.095-0.646-0.229c-0.209-0.798-0.38-1.349-0.931-1.349
		c-0.988,0-1.615,1.957-2.109,4.825h1.349c1.026,0,1.919-0.171,2.451-0.304c0.323,0,0.323,0.646,0.133,1.539
		c-0.38,1.614-0.76,3.229-1.159,4.844c-0.151,0.627-0.113,0.874,0.038,0.874c0.133,0,0.685-0.342,1.14-0.722L45.428,17.982z"/>
	<path d="M53.788,18.078c-0.95,1.102-2.128,1.843-2.641,1.843c-0.323,0-0.589-0.418-0.342-1.482c0.38-1.634,0.74-3.248,1.102-4.863
		c0.189-0.874,0.152-1.158-0.057-1.158c-0.494,0-2.204,2.052-2.964,3.571c-0.247,0.969-0.551,2.317-0.779,3.571
		c-0.589,0.038-1.14,0.171-1.652,0.285l-0.076-0.095c0.418-1.768,0.893-3.762,1.367-6.041c0.172-0.761,0.209-1.064,0.058-1.064
		c-0.133,0-0.646,0.361-1.026,0.684l-0.095-0.189c0.854-0.988,1.995-1.843,2.546-1.843c0.399,0,0.494,0.607,0.151,2.09l-0.342,1.52
		h0.038c1.463-2.166,2.432-2.888,3.021-3.248c0.323-0.209,0.761-0.361,1.045-0.361c0.438,0,0.817,0.361,0.323,2.603
		c-0.285,1.349-0.589,2.697-0.893,4.065c-0.095,0.437-0.076,0.589,0.038,0.589c0.151,0,0.702-0.342,1.045-0.646L53.788,18.078z"/>
	<path d="M62.091,18.078c-0.949,1.102-2.127,1.843-2.641,1.843c-0.322,0-0.589-0.418-0.342-1.482
		c0.38-1.634,0.741-3.248,1.102-4.863c0.19-0.874,0.152-1.158-0.057-1.158c-0.494,0-2.203,2.052-2.964,3.571
		c-0.246,0.969-0.551,2.317-0.778,3.571c-0.589,0.038-1.14,0.171-1.653,0.285l-0.075-0.095c0.418-1.768,0.893-3.762,1.367-6.041
		c0.171-0.761,0.209-1.064,0.058-1.064c-0.134,0-0.646,0.361-1.026,0.684l-0.095-0.189c0.854-0.988,1.994-1.843,2.546-1.843
		c0.398,0,0.493,0.607,0.151,2.09l-0.342,1.52h0.038c1.463-2.166,2.432-2.888,3.021-3.248c0.323-0.209,0.76-0.361,1.045-0.361
		c0.437,0,0.816,0.361,0.323,2.603c-0.285,1.349-0.589,2.697-0.894,4.065c-0.095,0.437-0.075,0.589,0.038,0.589
		c0.152,0,0.703-0.342,1.045-0.646L62.091,18.078z"/>
	<path d="M74.517,18.059c-0.836,1.083-2.128,1.862-2.66,1.862c-0.437,0-0.589-0.418-0.304-1.748l1.063-4.692
		c0.171-0.741,0.152-1.007-0.057-1.007c-0.589,0-2.394,2.223-2.906,3.477c-0.267,0.816-0.551,2.337-0.817,3.609
		c-0.551,0.057-1.121,0.171-1.614,0.285l-0.096-0.095c0.456-1.9,0.932-3.914,1.35-5.813c0.228-0.988,0.228-1.481-0.02-1.481
		c-0.646,0-2.299,2.203-2.926,3.571c-0.247,0.798-0.531,2.261-0.798,3.533c-0.607,0.057-1.12,0.171-1.652,0.285l-0.076-0.095
		c0.437-1.862,0.912-3.856,1.368-5.984c0.189-0.874,0.171-1.14,0-1.14c-0.133,0-0.608,0.284-0.988,0.646l-0.133-0.189
		c0.912-1.007,2.032-1.786,2.564-1.786c0.418,0,0.513,0.589,0.209,2.052l-0.304,1.481h0.038c1.254-1.899,2.374-2.83,2.963-3.191
		c0.381-0.228,0.665-0.342,0.95-0.342c0.304,0,0.931,0.266,0.323,2.793l-0.171,0.664h0.038c1.291-1.861,2.355-2.735,3.021-3.115
		c0.398-0.228,0.74-0.342,0.987-0.342c0.323,0,0.817,0.247,0.342,2.413l-0.931,4.198c-0.114,0.531-0.095,0.665,0.038,0.665
		c0.152,0,0.703-0.323,1.083-0.703L74.517,18.059z"/>
	<path d="M75.525,17.147c0-2.489,1.158-4.256,2.45-5.11c0.646-0.438,1.443-0.741,2.204-0.741c1.405,0,2.127,1.063,2.127,2.735
		s-0.702,3.591-1.918,4.712c-0.703,0.627-1.729,1.178-2.66,1.178C76.019,19.921,75.525,18.477,75.525,17.147z M78.793,19.351
		c0.798-0.323,1.709-2.603,1.709-5.452c0-1.481-0.322-2.128-0.949-2.128c-0.134,0-0.267,0.038-0.438,0.076
		c-0.665,0.304-1.785,2.128-1.785,5.472c0,1.349,0.456,2.108,1.025,2.108C78.526,19.427,78.641,19.389,78.793,19.351z"/>
	<path d="M83.277,13.157c0.931-1.007,2.014-1.861,2.603-1.861c0.476,0,0.513,0.646,0.171,2.204l-0.266,1.253h0.038
		c1.063-2.374,1.899-3.457,2.47-3.457c0.247,0,0.531,0.189,0.703,0.513c0.151,0.304,0.171,0.551-0.038,0.874
		c-0.209,0.304-0.38,0.494-0.57,0.646c-0.133,0.076-0.247,0.076-0.361-0.037c-0.209-0.229-0.38-0.381-0.589-0.381
		c-0.151,0-0.36,0.152-0.702,0.723c-0.343,0.589-0.741,1.425-1.083,2.317c-0.342,1.443-0.551,2.603-0.741,3.609
		c-0.551,0.038-1.14,0.152-1.577,0.285l-0.133-0.114c0.514-2.128,1.007-4.274,1.368-6.402c0.076-0.418,0.095-0.722-0.057-0.722
		c-0.209,0-0.741,0.399-1.103,0.76L83.277,13.157z"/>
	<path d="M94.239,17.641c-1.558,1.881-2.773,2.28-3.629,2.28c-0.911,0-1.805-0.514-1.805-2.546c0-1.786,0.779-3.856,2.014-4.92
		c0.685-0.57,1.843-1.159,2.527-1.159c0.893,0,1.425,0.684,1.425,1.387c0,1.577-2.47,2.755-4.199,3.229
		c-0.019,0.209-0.019,0.342-0.019,0.589c0,1.121,0.152,2.317,1.159,2.317c0.627,0,1.5-0.437,2.374-1.349L94.239,17.641z
		 M91.959,12.15c-0.284,0.229-0.987,1.121-1.329,3.42c1.956-0.703,2.641-1.577,2.641-2.603c0-0.76-0.361-1.083-0.723-1.083
		C92.358,11.885,92.168,11.941,91.959,12.15z"/>
</g>
</svg>
